PathFileType	4	(X/Y/Z)	C:\Users\ebm\Documents\Erivelton\Erivelton2\wc9.trc
DataRate	CameraRate	NumFrames	NumMarkers	Units	OrigDataRate	OrigDataStartFrame	OrigNumFrames
150.00	150.00	      10	28	mm	150.00	809	      1293
Frame#	Time	IJ			PX			C7			T8			RAC			RAS			RPS			RAI			RPI			RLE			RME			RRS			RUS			R3M			R5M			LAC			LAS			LPS			LAI			LPI			LLE			LME			LRS			LUS			L3M			L5M			RW			LW			V_mid_elbow_r			V_mid_elbow_l			V_mid_wrist_r			V_mid_wrist_l			V_mid_trunk_low			V_mid_trunk_upp			
		X1	Y1	Z1	X2	Y2	Z2	X3	Y3	Z3	X4	Y4	Z4	X5	Y5	Z5	X6	Y6	Z6	X7	Y7	Z7	X8	Y8	Z8	X9	Y9	Z9	X10	Y10	Z10	X11	Y11	Z11	X12	Y12	Z12	X13	Y13	Z13	X14	Y14	Z14	X15	Y15	Z15	X16	Y16	Z16	X17	Y17	Z17	X18	Y18	Z18	X19	Y19	Z19	X20	Y20	Z20	X21	Y21	Z21	X22	Y22	Z22	X23	Y23	Z23	X24	Y24	Z24	X25	Y25	Z25	X26	Y26	Z26	X27	Y27	Z27	X28	Y28	Z28	

809	5.387	1689.58862	1037.65173	177.59370	1701.32813	869.38397	190.61382	1566.48572	1138.96118	152.96086	1486.41895	986.17188	153.00542	1601.05115	1070.86121	368.97507	1680.22192	884.55121	390.94336	1636.62158	870.14343	411.44321	1714.05615	814.27667	393.64230	1668.92371	795.70831	415.87811	1708.76477	737.75757	407.14539	1670.74805	718.28314	339.53528	1931.63635	740.10980	240.12692	1937.60742	719.90747	299.95706	2014.72876	710.80304	254.84010	2004.37122	698.45209	290.99707	1625.20935	1083.29187	-19.09474	1689.66772	929.39252	-95.24373	1647.04333	907.22217	-102.61704	1733.91638	863.60681	-109.98253	1687.11243	835.14984	-117.70072	1770.98608	780.99396	-122.78826	1718.94336	740.13324	-83.62108	1957.28015	726.54749	66.11555	1976.05457	695.48468	11.43079	2044.03967	693.84509	51.67689	2024.75354	674.26093	18.34849	1593.25342	299.57938	492.48181	1653.55310	297.65186	-134.11717	
810	5.393	1696.66675	1037.55603	178.49673	1708.34766	869.26508	191.34213	1573.61890	1138.97253	153.77928	1493.56226	986.15002	153.76556	1608.10095	1070.73706	369.78574	1687.20850	884.38116	391.74719	1643.49902	870.02197	412.19128	1721.06091	814.12750	394.42139	1675.79858	795.60455	416.69684	1715.68884	737.61090	407.86465	1677.88647	718.09741	340.18686	1938.62354	740.15955	240.98305	1944.67566	719.79718	300.80075	2021.75684	710.89984	255.73094	2011.41479	698.47675	291.80038	1632.51221	1083.42102	-18.22976	1696.89478	929.50342	-94.47015	1654.15857	907.34760	-101.92053	1741.15027	863.89783	-109.17171	1694.27710	835.31451	-116.99966	1778.17627	781.25043	-122.22301	1726.17651	740.27490	-82.96853	1964.47046	726.58618	66.93748	1983.22791	695.44385	12.18436	2051.20874	693.87640	52.53804	2031.95911	674.34625	19.23381	1600.39282	299.50854	493.20932	1660.77087	297.66830	-133.35228	
811	5.400	1703.77527	1037.49158	179.27295	1715.48999	869.23352	192.05167	1580.78516	1138.95435	154.62039	1500.68176	986.14764	154.46892	1614.99011	1070.63098	370.60562	1694.11218	884.28680	392.43552	1650.42151	869.87964	412.95874	1728.00964	814.01953	395.10437	1682.77930	795.43085	417.38965	1722.64026	737.58051	408.52432	1684.80969	718.03729	340.90848	1945.67273	740.17932	241.76701	1951.61731	719.92950	301.72540	2028.75903	710.96313	256.55200	2018.38831	698.50854	292.70914	1639.73657	1083.54993	-17.36380	1704.13269	929.58319	-93.72619	1661.45190	907.60760	-101.15133	1748.25256	863.87878	-108.60329	1701.66663	835.35553	-116.22782	1785.46985	781.35315	-121.43960	1733.34741	740.42181	-82.29711	1971.64075	726.60608	67.67142	1990.43506	695.45593	13.02343	2058.40210	693.85364	53.24601	2039.06775	674.32806	19.98008	1607.47571	299.37875	494.02844	1667.93994	297.70078	-132.52827	
812	5.407	1710.95178	1037.47083	180.13763	1722.63184	869.21460	192.89555	1587.87500	1138.95081	155.37662	1507.78967	986.11255	155.20088	1621.97046	1070.52612	371.43115	1701.12000	884.20361	393.29742	1657.32092	869.73193	413.65311	1734.97131	813.86963	395.80515	1689.64514	795.29834	418.10275	1729.60352	737.69202	409.30908	1691.77185	717.95862	341.59991	1952.65344	740.12793	242.60266	1958.60620	719.68475	302.69650	2035.80884	710.94702	257.39722	2025.39026	698.59357	293.61017	1646.88574	1083.61560	-16.55504	1711.39941	929.82025	-92.93295	1668.73047	907.67725	-100.43328	1755.63354	864.03546	-107.77650	1708.93958	835.53705	-115.52451	1792.63977	781.46185	-120.67393	1740.55981	740.55310	-81.56223	1978.73450	726.59308	68.46014	1997.55273	695.47345	13.80450	2065.54224	693.89496	54.15658	2046.33008	674.30951	20.79362	1614.57153	299.28333	494.81671	1675.07568	297.66870	-131.66159	
813	5.413	1718.07422	1037.45349	181.06593	1729.77002	869.15851	193.65833	1594.98267	1138.93494	156.26392	1514.93213	986.10046	155.94203	1629.07202	1070.60156	372.33047	1708.07129	884.09174	394.08041	1664.34692	869.62109	414.37787	1741.90491	813.77954	396.69449	1696.60620	795.20215	418.86646	1736.48621	737.59418	409.96115	1698.69861	717.84821	342.26840	1959.67676	740.11969	243.87532	1965.67224	719.84949	303.48453	2042.95313	710.87042	258.32217	2032.42725	698.58972	294.44733	1654.13147	1083.64746	-15.73270	1718.58350	929.86865	-92.14663	1675.95935	907.76678	-99.59248	1762.68787	864.09332	-107.02341	1715.96704	835.70416	-114.82296	1799.96838	781.56360	-119.81540	1747.83862	740.60327	-80.81125	1986.00586	726.63745	69.31767	2004.75171	695.38641	14.65565	2072.58325	693.92426	55.16500	2053.47363	674.34894	21.71113	1621.74622	299.17365	495.63611	1682.37341	297.63855	-130.78882	
814	5.420	1725.14111	1037.36011	181.90692	1736.87012	869.14032	194.47804	1602.06580	1138.90125	157.02588	1522.09583	986.06201	156.68423	1636.02490	1070.46204	373.08630	1714.97424	883.95221	394.79233	1671.23938	869.53137	415.14508	1748.84375	813.67297	397.46149	1703.52087	795.06909	419.55484	1743.50098	737.33490	410.50259	1705.71777	717.77551	343.00281	1966.72852	740.09802	244.71846	1972.72083	719.81512	304.33484	2049.93286	710.93390	259.20715	2039.57458	698.45972	295.36310	1661.25037	1083.68457	-14.90897	1725.86121	929.91327	-91.30612	1683.20667	907.83563	-98.88087	1769.94885	864.18951	-106.19942	1723.31714	835.83295	-114.11419	1807.19885	781.65851	-119.14904	1755.02380	740.68451	-80.09273	1993.08972	726.55682	70.10067	2011.89722	695.44720	15.44472	2079.93335	693.92218	55.93032	2060.55713	674.24457	22.45815	1628.72058	299.10593	496.44818	1689.53796	297.59402	-130.07474	
815	5.427	1732.18091	1037.29297	182.70532	1744.02332	869.09839	195.26012	1609.16174	1138.88306	157.84488	1529.18652	985.98981	157.44725	1642.90942	1070.17822	373.83633	1721.96704	883.86273	395.60141	1678.19116	869.42395	415.90167	1755.83069	813.54120	398.04874	1710.47852	794.95703	420.23535	1750.49097	737.07910	411.14255	1712.66675	717.68713	343.63779	1973.88013	740.03882	245.48080	1979.75903	719.70227	305.03326	2057.02197	710.91467	260.08572	2046.66174	698.47644	296.29279	1668.44055	1083.75378	-14.13947	1733.08081	930.04016	-90.52059	1690.34656	907.92316	-98.19254	1777.35400	864.43518	-105.21648	1730.66125	835.87415	-113.26382	1814.40173	781.67932	-118.38415	1762.14453	740.79779	-79.40976	2000.27185	726.55017	70.89226	2019.11462	695.43262	16.32034	2087.00757	693.95422	56.86101	2067.74268	674.23993	23.26495	1635.82495	299.04715	497.16083	1696.84131	297.60107	-129.29219	
816	5.433	1739.24316	1037.30725	183.56590	1751.15417	869.03961	196.13004	1616.27100	1138.84387	158.65082	1536.27014	985.95856	158.13731	1649.81384	1070.10400	374.65933	1728.93689	883.75372	396.23529	1685.15015	869.23413	416.58780	1762.78906	813.46539	398.72595	1717.48132	794.84009	420.89743	1757.37830	736.96649	411.96362	1719.69519	717.59100	344.31927	1980.87122	739.98907	246.32872	1986.88501	719.59955	305.83408	2064.08667	710.92529	260.98474	2053.72412	698.44250	297.18890	1675.62292	1083.72974	-13.25815	1740.25525	930.07166	-89.74616	1697.56384	908.02686	-97.26964	1784.41797	864.35809	-104.56349	1737.82629	835.92969	-112.50272	1821.63428	781.71478	-117.38005	1769.43286	740.86719	-78.62308	2007.41724	726.51886	71.78133	2026.23254	695.39978	17.10987	2094.10474	693.95197	57.61479	2074.86279	674.23022	24.09245	1642.91565	298.96048	497.88873	1703.98730	297.57413	-128.52838	
817	5.440	1746.31665	1037.23694	184.44695	1758.28503	869.04614	196.97450	1623.28967	1138.81177	159.51151	1543.38367	985.89380	158.92409	1656.80151	1069.97815	375.46838	1735.87573	883.68488	397.02652	1692.11450	869.09033	417.33392	1769.78040	813.41290	399.50925	1724.44434	794.73114	421.67233	1764.38440	736.85767	412.59296	1726.72095	717.56232	345.01962	1988.04041	739.97833	247.17374	1993.89038	719.55927	306.63107	2071.14282	710.96814	261.89206	2060.77759	698.42401	298.00171	1682.76404	1083.74292	-12.42229	1747.54065	930.06372	-88.96371	1704.96387	907.97491	-96.46717	1791.72852	864.46631	-103.65340	1745.08850	835.99640	-111.76440	1828.96814	781.73419	-116.69239	1776.63257	740.90442	-77.88615	2014.67346	726.67096	72.61282	2033.46265	695.38031	18.00044	2101.26611	693.94244	58.52172	2082.13525	674.24139	25.01857	1650.16296	298.65244	498.53854	1711.11523	297.52847	-127.99922	
818	5.447	1753.28845	1037.19666	185.25714	1764.46667	868.92969	197.65526	1630.36011	1138.77966	160.24266	1550.46240	985.82465	159.71179	1663.73926	1069.88770	376.26425	1742.91833	883.58044	397.73370	1699.11841	869.01337	418.08606	1776.77441	813.28516	400.20374	1731.50208	794.59766	422.32550	1771.32520	736.95129	413.44064	1733.79309	717.51465	345.63312	1995.15796	739.98511	247.98323	2000.91968	719.55841	307.49301	2078.29492	710.93970	262.73251	2067.91138	698.49506	298.84811	1689.92725	1083.71985	-11.61770	1754.66394	930.07660	-88.17487	1712.04260	908.06226	-95.61950	1798.76196	864.37701	-102.98432	1752.16833	836.00739	-110.95968	1836.07312	781.85596	-115.92620	1783.85657	740.87433	-77.06258	2021.79028	726.63202	73.69990	2040.54089	695.40149	18.88214	2108.53418	693.89520	59.38884	2089.28320	674.26721	25.81762	1657.04053	298.81186	499.38544	1718.39612	297.48102	-127.07340	
